<?xml version="1.0" encoding="utf-8"?>
<!-- Generator: Adobe Illustrator 21.0.0, SVG Export Plug-In . SVG Version: 6.00 Build 0)  -->
<svg version="1.1" id="Capa_1" xmlns="http://www.w3.org/2000/svg" xmlns:xlink="http://www.w3.org/1999/xlink" x="0px" y="0px"
	 viewBox="0 0 276 63" style="enable-background:new 0 0 276 63;" xml:space="preserve">
<style type="text/css">
	.st0{fill:#184B80;}
</style>
<g id="_x39_UFHma.tif">
	<g>
		<path class="st0" d="M107.8,39.8c0,0-0.1,0-0.1,0c-0.1-0.2-0.3-0.3-0.4-0.5c-1.6-2.1-3.2-4.2-4.8-6.2c-4.7-6.2-9.4-12.3-14.1-18.5
			c-3.1-4.1-6.3-8.3-9.4-12.4c-0.3-0.4-0.6-0.5-1-0.5c-3.3,0-6.7,0-10,0c-0.2,0-0.5,0-0.7,0.1c-0.1,0.8-0.1,58.6,0,59.1
			c0.7,0,1.5,0,2.2,0c1.4-0.1,2.7-0.3,4.1-0.7c2.6-0.8,4.4-2.5,5-5.2c0.4-1.4,0.5-2.9,0.5-4.3c0-1.6,0-3.2,0-4.7
			c0-7.8,0-15.6,0-23.4c0-0.3,0-0.6,0.1-1c0.2,0.3,0.4,0.4,0.5,0.5c0.6,0.7,1.1,1.5,1.7,2.2c4.2,5.5,8.3,10.9,12.5,16.4
			c5,6.6,10.1,13.2,15.1,19.9c0.3,0.3,0.5,0.4,0.9,0.4c3.1,0,6.1,0,9.2,0c0.2,0,0.4,0,0.7,0c0-19.7,0-39.4,0-59.1
			c-0.3,0-0.5,0-0.7,0c-1.7,0.1-3.3,0.1-5,0.2c-0.9,0.1-1.9,0.3-2.8,0.6c-1,0.4-1.7,1-2.2,1.9c-0.5,0.9-0.7,1.8-0.9,2.8
			c-0.3,1.8-0.3,3.6-0.3,5.4c0,5.6,0,11.2,0,16.8c0,3.2,0,6.4,0,9.6C107.9,39.3,107.8,39.6,107.8,39.8z M178.9,60.9
			c14.9,0,29.8,0,44.7,0c0-0.2,0.1-0.4,0.1-0.5c0-0.6,0-1.2,0-1.8c-0.1-1.2-0.2-2.4-0.5-3.6c-0.5-1.9-1.7-3.1-3.4-3.8
			c-1.5-0.6-3-0.8-4.5-0.8c-7.8,0-15.6,0-23.4,0c-0.3,0-0.5,0-0.8,0c-0.2-0.7-0.2-13.3,0-13.9c0.3,0,0.6,0,0.9,0c8.7,0,17.4,0,26,0
			c0.3,0,0.6,0,0.9,0c0.2,0,0.3-0.1,0.6-0.1c-0.1-1.6-0.1-3.2-0.2-4.8c-0.1-1.5-0.7-2.8-1.9-3.8c-0.9-0.7-2-1.2-3.1-1.4
			c-1.6-0.4-3.2-0.5-4.9-0.5c-5.9,0-11.7,0-17.6,0c-0.3,0-0.6,0-0.9,0c0-0.3-0.1-0.5-0.1-0.7c0-4,0-8,0-12c0-0.2,0-0.5,0.1-0.7
			c0.3,0,0.6,0,0.9,0c7,0,14,0,21,0c1.1,0,2.3,0,3.4-0.1c0.9-0.1,1.9-0.2,2.8-0.4c0.8-0.2,1.6-0.6,2.3-1.2c0.9-0.8,1.4-1.9,1.5-3.1
			c0.2-1.4,0.3-2.7,0.4-4.1c0-0.6,0-1.1,0-1.7c-0.4,0-0.7,0-1.1,0c-10,0-20,0-30.1,0c-4.1,0-8.2,0-12.3,0c-0.3,0-0.6,0-0.9,0.1
			C178.7,2.6,178.8,60.4,178.9,60.9z M227.6,52.6c0.1,0.1,0.1,0.2,0.2,0.2c2.2,1.9,4.6,3.6,7.2,4.9c5.9,3,12.1,4.3,18.7,4.1
			c2-0.1,3.9-0.3,5.8-0.7c3.9-0.9,7.3-2.6,10.1-5.5c1.7-1.8,2.9-3.9,3.6-6.2c0.8-2.8,1-5.6,0.6-8.4c-0.3-2.6-1.2-4.9-2.9-7
			c-1.7-2-3.8-3.5-6.2-4.6c-2.4-1.1-4.9-2-7.4-2.7c-3.1-0.9-6.3-1.8-9.4-2.7c-1.4-0.4-2.7-1-3.9-1.8c-2.5-1.6-2.7-5.4-1.6-7.3
			c0.9-1.5,2.3-2.4,3.9-2.9c2.3-0.6,4.6-0.6,6.9-0.2c1.8,0.3,3.5,0.8,5.2,1.5c1.9,0.8,3.7,1.3,5.8,1.5c2,0.1,3.9-0.3,5.3-1.8
			c1.2-1.3,1.9-3,2.4-4.7c-0.2-0.1-0.3-0.3-0.4-0.4c-2-1.5-4.2-2.8-6.6-3.9c-5.3-2.4-10.9-3.3-16.8-3c-2.5,0.1-4.8,0.6-7.1,1.5
			c-3,1.1-5.6,2.9-7.7,5.3c-2.7,3.2-3.8,7-3.7,11.1c0,1.3,0.2,2.6,0.4,3.9c0.5,3.1,2,5.7,4.4,7.7c1.8,1.5,3.8,2.6,5.9,3.4
			c3,1.2,6.1,2.1,9.2,2.8c2.4,0.6,4.8,1.3,7.1,2.2c1,0.4,2,0.9,2.9,1.5c1.2,0.8,1.9,2,2.1,3.4c0.1,0.5,0,0.9,0.1,1.4
			c0,1.2-0.4,2.3-1.1,3.2c-0.8,1.1-2,1.7-3.2,2.1c-2.1,0.8-4.4,0.8-6.6,0.7c-3.1-0.2-6-1-8.9-2.3c-2-0.9-4.1-1.6-6.3-1.8
			c-2.1-0.2-4,0.3-5.6,1.7C229.1,49.9,228.3,51.2,227.6,52.6z M170.1,8.2c0-0.1-0.1-0.1-0.1-0.1c-0.1-0.1-0.2-0.1-0.2-0.2
			c-2.9-2.2-6.2-4-9.7-5.2c-3.3-1.1-6.7-1.7-10.2-1.8c-2.9-0.1-5.8,0.1-8.7,0.9c-3.4,0.9-6.4,2.5-8.8,5.1c-1.6,1.7-2.9,3.7-3.6,5.9
			c-1.3,3.8-1.2,7.6-0.2,11.4c0.6,2.2,1.8,4.1,3.5,5.7c1.7,1.7,3.8,2.8,6,3.8c2.9,1.2,5.8,2.1,8.8,2.8c2.3,0.6,4.6,1.2,6.9,2
			c1.3,0.5,2.6,1,3.8,1.8c1.4,0.9,2.3,2.2,2.5,3.9c0.2,1.8-0.2,3.5-1.6,4.8c-1.1,1-2.4,1.6-3.8,1.9c-1.5,0.4-3.1,0.4-4.7,0.4
			c-2.4,0-4.7-0.4-7-1.2c-1.5-0.5-3-1.2-4.5-1.8c-1.8-0.7-3.7-1.1-5.6-1.1c-1.4,0-2.8,0.4-4,1.3c-1.5,1.1-2.4,2.5-3.3,4.1
			c0.1,0.1,0.2,0.2,0.3,0.3c2.1,1.8,4.3,3.4,6.8,4.6c3.3,1.7,6.8,2.9,10.4,3.6c2.8,0.5,5.7,0.8,8.6,0.7c2.1-0.1,4.3-0.3,6.3-0.9
			c3.8-1,7.2-2.7,9.9-5.7c1.8-2,3-4.3,3.6-7c0.5-2.2,0.6-4.4,0.4-6.6c-0.2-2-0.6-4-1.6-5.8c-1.1-2-2.7-3.6-4.6-4.9
			c-2.6-1.8-5.6-2.9-8.6-3.9c-2.3-0.7-4.6-1.3-6.9-2c-2.1-0.6-4.3-1.2-6.3-2.1c-1-0.5-2-1-2.8-1.9c-1.2-1.4-1.5-3.1-1.2-4.8
			c0.3-2.1,1.7-3.5,3.7-4.2c2.1-0.8,4.4-0.9,6.6-0.6c2.1,0.2,4.1,0.8,6,1.6c1.5,0.6,3.1,1.2,4.7,1.4c1.3,0.2,2.7,0.3,4,0
			c0.9-0.2,1.8-0.7,2.5-1.4C168.8,11.8,169.5,10,170.1,8.2z"/>
		<path class="st0" d="M107.8,39.8c0-0.2,0-0.5,0-0.7c0-3.2,0-6.4,0-9.6c0-5.6,0-11.2,0-16.8c0-1.8,0-3.6,0.3-5.4
			c0.2-1,0.4-1.9,0.9-2.8c0.5-0.9,1.2-1.5,2.2-1.9c0.9-0.4,1.8-0.6,2.8-0.6c1.7-0.1,3.3-0.1,5-0.2c0.2,0,0.5,0,0.7,0
			c0,19.7,0,39.4,0,59.1c-0.2,0-0.5,0-0.7,0c-3.1,0-6.1,0-9.2,0c-0.4,0-0.7-0.1-0.9-0.4c-5-6.6-10.1-13.3-15.1-19.9
			c-4.2-5.5-8.3-10.9-12.5-16.4c-0.6-0.7-1.1-1.5-1.7-2.2c-0.1-0.1-0.2-0.3-0.5-0.5c0,0.4-0.1,0.7-0.1,1c0,7.8,0,15.6,0,23.4
			c0,1.6,0,3.2,0,4.7c0,1.4-0.2,2.9-0.5,4.3c-0.7,2.7-2.4,4.4-5,5.2c-1.3,0.4-2.7,0.6-4.1,0.7c-0.7,0-1.5,0-2.2,0
			c-0.1-0.5-0.1-58.3,0-59.1c0.2,0,0.4-0.1,0.7-0.1c3.3,0,6.7,0,10,0c0.5,0,0.8,0.2,1,0.5c3.1,4.1,6.3,8.3,9.4,12.4
			c4.7,6.2,9.4,12.3,14.1,18.5c1.6,2.1,3.2,4.2,4.8,6.2c0.1,0.2,0.3,0.3,0.4,0.5C107.7,39.8,107.8,39.8,107.8,39.8z"/>
		<path class="st0" d="M178.9,60.9c-0.1-0.5-0.2-58.3,0-59.1c0.3,0,0.6-0.1,0.9-0.1c4.1,0,8.2,0,12.3,0c10,0,20,0,30.1,0
			c0.3,0,0.6,0,1.1,0c0,0.6,0,1.2,0,1.7c-0.1,1.4-0.2,2.8-0.4,4.1c-0.2,1.2-0.6,2.2-1.5,3.1c-0.7,0.6-1.4,1-2.3,1.2
			c-0.9,0.2-1.9,0.4-2.8,0.4c-1.1,0.1-2.2,0.1-3.4,0.1c-7,0-14,0-21,0c-0.3,0-0.6,0-0.9,0c0,0.3-0.1,0.5-0.1,0.7c0,4,0,8,0,12
			c0,0.2,0,0.4,0.1,0.7c0.3,0,0.6,0,0.9,0c5.9,0,11.7,0,17.6,0c1.6,0,3.3,0.1,4.9,0.5c1.1,0.3,2.2,0.7,3.1,1.4
			c1.2,1,1.7,2.3,1.9,3.8c0.1,1.6,0.1,3.1,0.2,4.8c-0.2,0-0.4,0.1-0.6,0.1c-0.3,0-0.6,0-0.9,0c-8.7,0-17.4,0-26,0
			c-0.3,0-0.6,0-0.9,0c-0.2,0.6-0.2,13.2,0,13.9c0.3,0,0.5,0,0.8,0c7.8,0,15.6,0,23.4,0c1.5,0,3.1,0.2,4.5,0.8
			c1.8,0.7,3,1.9,3.4,3.8c0.3,1.2,0.4,2.4,0.5,3.6c0,0.6,0,1.2,0,1.8c0,0.2,0,0.3-0.1,0.5C208.7,60.9,193.8,60.9,178.9,60.9z"/>
		<path class="st0" d="M227.6,52.6c0.7-1.4,1.5-2.7,2.7-3.7c1.6-1.4,3.5-1.8,5.6-1.7c2.2,0.2,4.3,0.8,6.3,1.8
			c2.8,1.3,5.8,2.1,8.9,2.3c2.2,0.1,4.5,0.1,6.6-0.7c1.2-0.4,2.4-1.1,3.2-2.1c0.7-0.9,1.1-2,1.1-3.2c0-0.5,0-1-0.1-1.4
			c-0.2-1.5-0.9-2.6-2.1-3.4c-0.9-0.6-1.9-1.1-2.9-1.5c-2.3-0.9-4.7-1.6-7.1-2.2c-3.1-0.8-6.2-1.6-9.2-2.8c-2.1-0.8-4.2-1.9-5.9-3.4
			c-2.4-2-3.9-4.6-4.4-7.7c-0.2-1.3-0.4-2.6-0.4-3.9c0-4.1,1.1-7.9,3.7-11.1c2.1-2.5,4.7-4.2,7.7-5.3c2.3-0.9,4.7-1.3,7.1-1.5
			c5.8-0.3,11.4,0.6,16.8,3c2.3,1.1,4.5,2.4,6.6,3.9c0.1,0.1,0.3,0.2,0.4,0.4c-0.5,1.7-1.2,3.4-2.4,4.7c-1.5,1.5-3.3,2-5.3,1.8
			c-2-0.1-3.9-0.7-5.8-1.5c-1.7-0.7-3.4-1.3-5.2-1.5c-2.3-0.4-4.7-0.4-6.9,0.2c-1.7,0.5-3,1.3-3.9,2.9c-1.2,1.9-1,5.7,1.6,7.3
			c1.2,0.8,2.5,1.4,3.9,1.8c3.1,0.9,6.3,1.8,9.4,2.7c2.5,0.7,5,1.6,7.4,2.7c2.4,1.1,4.5,2.6,6.2,4.6c1.7,2,2.6,4.4,2.9,7
			c0.3,2.8,0.2,5.7-0.6,8.4c-0.7,2.4-1.9,4.4-3.6,6.2c-2.8,2.9-6.2,4.6-10.1,5.5c-1.9,0.5-3.9,0.7-5.8,0.7
			c-6.6,0.2-12.8-1.1-18.7-4.1c-2.6-1.3-5-3-7.2-4.9C227.7,52.7,227.6,52.7,227.6,52.6z"/>
		<path class="st0" d="M170.1,8.2c-0.6,1.8-1.2,3.5-2.7,4.9c-0.7,0.7-1.5,1.1-2.5,1.4c-1.3,0.3-2.7,0.3-4,0
			c-1.6-0.3-3.2-0.8-4.7-1.4c-1.9-0.8-3.9-1.3-6-1.6c-2.3-0.2-4.5-0.2-6.6,0.6c-1.9,0.8-3.3,2.1-3.7,4.2c-0.3,1.7,0,3.4,1.2,4.8
			c0.8,0.9,1.8,1.4,2.8,1.9c2,0.9,4.2,1.5,6.3,2.1c2.3,0.7,4.6,1.2,6.9,2c3,0.9,6,2.1,8.6,3.9c1.9,1.3,3.5,2.9,4.6,4.9
			c1,1.8,1.5,3.8,1.6,5.8c0.2,2.2,0.1,4.4-0.4,6.6c-0.6,2.6-1.8,4.9-3.6,7c-2.7,3-6.1,4.7-9.9,5.7c-2.1,0.5-4.2,0.8-6.3,0.9
			c-2.9,0.1-5.7-0.1-8.6-0.7c-3.7-0.7-7.2-1.9-10.4-3.6c-2.4-1.3-4.7-2.8-6.8-4.6c-0.1-0.1-0.2-0.2-0.3-0.3c0.8-1.6,1.8-3.1,3.3-4.1
			c1.2-0.9,2.5-1.2,4-1.3c2-0.1,3.8,0.4,5.6,1.1c1.5,0.6,3,1.2,4.5,1.8c2.3,0.8,4.6,1.2,7,1.2c1.6,0,3.2,0,4.7-0.4
			c1.4-0.4,2.7-0.9,3.8-1.9c1.4-1.3,1.8-3,1.6-4.8c-0.2-1.7-1-3-2.5-3.9c-1.2-0.8-2.5-1.3-3.8-1.8c-2.3-0.8-4.6-1.4-6.9-2
			c-3-0.8-6-1.6-8.8-2.8c-2.2-0.9-4.3-2.1-6-3.8c-1.6-1.6-2.9-3.5-3.5-5.7c-1-3.8-1-7.6,0.2-11.4c0.7-2.2,2-4.2,3.6-5.9
			c2.5-2.5,5.5-4.1,8.8-5.1c2.8-0.8,5.7-1,8.7-0.9c3.5,0.1,6.9,0.7,10.2,1.8c3.5,1.2,6.7,2.9,9.7,5.2c0.1,0.1,0.2,0.1,0.2,0.2
			C170,8.1,170,8.2,170.1,8.2z"/>
	</g>
</g>
<path class="st0" d="M62.4,60.9c-4.2,0-8.3,0-12.5,0c-0.1-0.2-0.2-0.5-0.4-0.8c-1.6-3.9-3.2-7.8-4.8-11.7c-0.4-1-0.4-1-1.4-1
	c-8.1,0-16.2,0-24.4,0c-0.1,0-0.3,0-0.4,0c-0.6,0-0.6,0-0.9,0.6c-1,2.4-2,4.9-3,7.3c-0.4,0.8-0.8,1.6-1.3,2.4
	c-0.9,1.5-2.3,2.4-4,2.8c-1.4,0.3-2.8,0.3-4.3,0.4c-1.4,0-2.8,0-4.2,0c-0.2,0-0.4,0-0.6,0c0-0.1-0.1-0.1-0.1-0.1c0,0,0,0,0-0.1
	C8.6,41.1,17,21.4,25.4,1.8c0.1-0.2,0.2-0.3,0.3-0.5c0.2,0,0.4,0,0.6,0c2.1,0,4.3,0.1,6.4,0.1c0.7,0,1.4,0.2,2.1,0.3
	c1.3,0.3,2.2,1,3,2.1c0.9,1.2,1.5,2.6,2,3.9c4.2,10,8.5,19.9,12.7,29.9c2.6,6.1,5.2,12.1,7.7,18.2c0.6,1.5,1.3,3,1.9,4.5
	C62.2,60.5,62.3,60.7,62.4,60.9z M31.2,15.3c-0.1,0-0.1,0-0.2,0c-0.1,0.2-0.2,0.4-0.3,0.6c-1.4,3.3-2.7,6.6-4.1,9.9
	c-1.4,3.5-2.8,6.9-4.2,10.4c-0.1,0.2-0.1,0.4-0.2,0.6c1.1,0.2,17.2,0.1,17.7-0.1C37.1,29.6,34.1,22.4,31.2,15.3z"/>
</svg>
